<svg width="100" height="100" viewBox="0 0 100 100" fill="none" xmlns="http://www.w3.org/2000/svg">
<path id="EstateLogo" d="M47.7641 0.365772C47.3985 0.690976 31.8293 9.75602 26.8293 12.5203C25.0813 13.4959 20.1219 16.382 10.9756 21.7477C8.61788 23.1298 5.20326 25.1219 3.37399 26.1786L0 28.13V64.0648V99.9999H5.89432H11.7886V87.6422V75.2846L13.9431 73.943C15.0813 73.2114 17.8049 71.6259 19.9187 70.4065L23.7806 68.1706L26.2194 69.5122C27.5608 70.2438 30.4473 71.8292 32.6421 73.0487L36.5854 75.2846V87.6422V99.9999H42.0733H47.5608V84.4308V68.9023L35.8132 62.2764C29.3495 58.6584 23.8619 55.6908 23.6179 55.6908C23.4147 55.6908 20.9349 57.0729 18.1707 58.7395C15.4065 60.4065 12.8455 61.8698 12.4797 62.0325C11.8699 62.2355 11.7886 61.8698 11.7886 58.4551V54.6341L13.9431 53.4147C16.9106 51.6665 21.4634 49.0244 23.1707 48.0894C23.9432 47.6423 26.1381 46.3413 28.0487 45.2436C29.9593 44.1058 32.8048 42.4388 34.3495 41.5448L37.1952 39.9188L40.244 41.5448C41.9106 42.4797 44.3088 43.7803 45.5286 44.512C46.748 45.2436 49.1465 46.5446 50.8132 47.439C56.0568 50.2438 62.1952 53.6176 63.2114 54.3087L64.2275 54.9592V77.4795V99.9999H69.5121H74.7967V74.0648V48.1706L71.2601 46.1786C69.2681 45.1219 63.9432 42.1543 59.3495 39.6339C49.3088 34.1463 47.8861 33.3331 41.87 29.9594L37.1952 27.3168L35.5692 28.2518C34.6747 28.7805 30.6506 31.0976 26.626 33.4553C13.8211 40.8943 11.3821 42.2764 10.9756 42.2764C10.7317 42.2764 10.5691 40.6504 10.5691 38.4551V34.5935L12.9268 33.2114C14.187 32.4797 17.2764 30.691 19.7155 29.2683C22.1951 27.8456 25.6505 25.8535 27.4392 24.7968C29.2275 23.7397 31.504 22.4388 32.5201 21.8698C33.5366 21.3009 37.5201 18.9838 41.4227 16.7072C45.2846 14.4714 48.6586 12.6015 48.9026 12.6015C49.1059 12.6015 50.6099 13.3333 52.1952 14.1869C74.3088 26.2601 88.8619 34.3902 89.1059 34.7153C89.2681 34.9592 89.3901 49.756 89.3088 67.6017L89.2275 99.9999H94.6341H100V64.0648V28.13L98.6993 27.3168C97.9674 26.8697 96.3414 25.9757 95.122 25.3252C91.626 23.4147 80.4879 17.2763 78.4553 16.1788C75.7725 14.6747 64.7154 8.57715 56.3414 3.98367C52.3172 1.78853 48.8619 -9.15527e-05 48.5773 -9.15527e-05C48.3333 -9.15527e-05 47.9674 0.16251 47.7641 0.365772Z" fill="#0071F0"/>
</svg>
